<svg width="204" height="80" viewBox="0 0 204 80" fill="none" xmlns="http://www.w3.org/2000/svg">
<mask id="mask0_3_14" style="mask-type:luminance" maskUnits="userSpaceOnUse" x="0" y="0" width="204" height="80">
<path d="M204 0H0V80H204V0Z" fill="white"/>
</mask>
<g mask="url(#mask0_3_14)">
<path d="M182.918 28.17C183.358 27.6056 183.75 27.0055 184.09 26.376C184.56 25.4213 184.876 24.3983 185.026 23.345C185.172 22.2807 185.239 21.2071 185.226 20.133C185.224 18.1765 185.04 16.2245 184.677 14.302C184.255 11.863 183.273 9.55529 181.807 7.56096C179.671 5.16975 176.91 3.42218 173.835 2.51496C170.594 1.42663 167.195 0.885891 163.776 0.914956L138.562 1.31496L127.649 1.23596C127.167 1.74279 126.847 2.3821 126.73 3.07196C126.667 3.578 126.647 4.08851 126.67 4.59796L126.914 12.314L126.67 13.387V13.8C126.747 13.845 126.778 13.881 126.77 13.922C126.762 13.963 126.757 14.006 126.752 14.045C126.747 14.084 126.801 14.126 126.869 14.169C126.937 14.212 126.982 14.248 126.993 14.291C126.994 14.3242 126.986 14.3571 126.969 14.3859C126.953 14.4147 126.928 14.4383 126.899 14.454C126.841 14.4998 126.791 14.5557 126.752 14.619C126.725 14.6741 126.721 14.7377 126.74 14.796C126.74 14.802 126.722 14.819 126.729 14.833C125.411 12.4778 123.788 10.3076 121.9 8.37896C119.062 5.63225 115.63 3.57551 111.869 2.36796C109.024 1.42869 106.049 0.939789 103.053 0.918956L88.04 0.999956C86.333 0.999956 84.613 0.999956 82.9 0.969956C81.19 0.959956 79.479 0.906956 77.767 0.827956C76.386 0.736956 75 0.680956 73.614 0.666956C73.2686 0.660046 72.9235 0.691235 72.585 0.759956C72.2025 0.844831 71.8327 0.979302 71.485 1.15996L71.162 1.72996V6.31996C71.5452 6.55422 71.8819 6.85732 72.155 7.21396C72.3963 7.54394 72.5852 7.90926 72.715 8.29696L71.581 9.52796V9.77196C71.7337 9.60233 71.9338 9.4824 72.1554 9.42768C72.377 9.37295 72.6099 9.38593 72.824 9.46496C73.263 9.63396 73.5 10.059 73.524 10.765C73.5498 11.4889 73.3161 12.1982 72.865 12.765C72.4293 13.275 71.827 13.614 71.165 13.722V14.542C71.1651 15.3674 71.083 16.1908 70.92 17C70.88 17.24 70.845 17.479 70.81 17.7C70.7754 17.9317 70.7587 18.1657 70.76 18.4V19.467C70.7664 19.7464 70.8112 20.0237 70.893 20.291C70.9752 20.5587 71.0393 20.8316 71.085 21.108C71.1525 21.433 71.1791 21.7653 71.164 22.097V30.562L72.146 36.806L71.58 37.623V39.676C71.5589 40.9389 71.6611 42.2009 71.885 43.444C72.1335 44.7317 72.5504 45.9811 73.125 47.16L71.74 47.978C71.689 48.492 71.64 49.089 71.584 49.749C71.528 50.409 71.498 51.027 71.484 51.59V58.068L71.978 58.562H78.578L81.271 58.316L102.965 58.155C104.155 58.155 105.252 58.11 106.307 58.019C107.325 57.93 108.336 57.7824 109.337 57.577C112.488 56.8489 115.474 55.5329 118.137 53.698C120.775 51.9494 123.096 49.7641 125 47.236C125.813 46.1083 126.536 44.9187 127.162 43.678V46.9C127.276 47.1728 127.374 47.4523 127.455 47.737C127.559 48.0501 127.598 48.3812 127.57 48.71L127.161 53.47V55.11C127.143 55.5178 127.207 55.9252 127.349 56.3078C127.491 56.6905 127.709 57.0408 127.989 57.338C128.267 57.6075 128.596 57.8188 128.956 57.9593C129.317 58.0998 129.702 58.1666 130.089 58.156H136.205C137.006 58.2042 137.809 58.0804 138.558 57.793C139.027 57.5843 139.407 57.2167 139.631 56.755L139.461 36.472L160.027 36.551C162.601 36.4911 165.127 37.2526 167.239 38.725C168.794 39.8278 169.999 41.353 170.714 43.12C170.98 43.9453 171.197 44.7858 171.363 45.637C171.579 46.5649 171.719 47.5091 171.78 48.46C171.783 48.6118 171.778 48.7638 171.763 48.915C171.756 49.0673 171.733 49.2185 171.694 49.366C171.654 49.566 171.61 49.758 171.585 49.937C171.551 50.1278 171.533 50.3211 171.531 50.515C171.551 50.973 171.606 51.429 171.694 51.879C171.799 52.4315 171.854 52.9925 171.858 53.555V56.925L173.407 58.318H181.559C181.957 58.5085 182.402 58.578 182.839 58.518C183.265 58.4453 183.665 58.2634 184 57.99L184.24 57.49V52.65C184.187 52.6392 184.138 52.6164 184.096 52.5834C184.053 52.5504 184.019 52.508 183.996 52.4596C183.973 52.4111 183.961 52.358 183.962 52.3043C183.962 52.2506 183.975 52.1977 184 52.15L184.24 50.838V50.431C184.24 50.277 184.219 50.021 184.182 49.665C184.152 49.3415 184.091 49.0217 184 48.71L184.24 45.999V45.011C184.248 44.2833 184.2 43.5562 184.096 42.836C183.98 42.0893 183.783 41.3575 183.507 40.654C183.264 40.3229 183.065 39.9623 182.913 39.581C182.86 39.3582 182.786 39.1412 182.691 38.933C182.641 38.83 182.576 38.7353 182.498 38.652C182.42 38.5616 182.35 38.4642 182.289 38.361C182.218 38.1596 182.16 37.9538 182.115 37.745C182.072 37.5276 181.994 37.3186 181.884 37.126L180.897 35.651L179.439 34.09L177.723 32.53L181.558 29.664C182.06 29.2145 182.515 28.7149 182.915 28.173M117.249 36.761C116.361 39.1523 114.971 41.326 113.173 43.136C112.027 44.2775 110.709 45.2327 109.267 45.967C107.841 46.7123 106.285 47.1732 104.683 47.324L102.402 47.487L102.075 46.417C101.213 46.6342 100.338 46.7962 99.455 46.902C98.4836 47.0175 97.5062 47.0763 96.528 47.078L84.444 47.163C84.1287 47.1954 83.8113 47.1253 83.539 46.963C83.277 46.802 83.113 46.351 83.059 45.599L82.813 38.943L82.57 12.243L82.813 11.665C83.8009 11.4632 84.799 11.3153 85.803 11.222C86.773 11.131 87.85 11.086 89.021 11.086H92.443L94.069 11.009H101.506C103.399 10.9629 105.288 11.2092 107.106 11.739C109.361 12.4493 111.413 13.6924 113.086 15.363C114.906 17.1339 116.321 19.2776 117.234 21.647C118.17 24.043 118.645 26.5945 118.634 29.167C118.638 31.7617 118.167 34.3352 117.243 36.76" fill="white"/>
<path d="M68.189 23.69C67.4677 20.6805 66.3753 17.7722 64.937 15.032C61.8357 9.15865 58.01 5.15865 53.46 3.03198C48.7585 0.861793 43.6129 -0.173357 38.438 0.00998324C35.4263 -0.0265491 32.4193 0.258059 29.468 0.858983C26.2511 1.5331 23.1618 2.71452 20.316 4.35898C16.8392 6.2796 13.8778 9.01177 11.684 12.323C9.85792 15.1782 8.68562 18.4018 8.251 21.763C8.17367 22.4137 8.09834 23.153 8.025 23.981C7.964 24.817 7.938 25.555 7.925 26.202V34.09C7.98692 36.5541 8.55967 38.9786 9.607 41.21C10.6776 43.5569 12.0411 45.7587 13.665 47.763C15.12 49.6005 16.776 51.2696 18.602 52.739C21.2632 54.9089 24.2965 56.5773 27.554 57.663C30.7248 58.6729 34.0364 59.1702 37.364 59.136C39.9153 59.1381 42.4587 58.8526 44.946 58.285C48.8859 57.3831 52.6603 55.8697 56.132 53.8C59.417 52.0783 62.2454 49.6001 64.384 46.57C66.1341 44.0305 67.3869 41.1822 68.076 38.176C68.6545 35.6792 68.9427 33.1239 68.935 30.561C68.947 28.2495 68.6968 25.9441 68.189 23.689M27.969 25.174C27.9112 24.5825 28.03 23.9871 28.3103 23.463C28.5906 22.9389 29.0198 22.5096 29.5439 22.2293C30.068 21.9489 30.6633 21.8301 31.2549 21.8878C31.8464 21.9455 32.4076 22.1772 32.8675 22.5535C33.3275 22.9299 33.6657 23.4341 33.8394 24.0025C34.0131 24.5709 34.0146 25.178 33.8435 25.7472C33.6725 26.3163 33.3367 26.8221 32.8785 27.2006C32.4203 27.5792 31.8602 27.8135 31.269 27.874C30.8749 27.914 30.4768 27.8759 30.0975 27.7618C29.7182 27.6477 29.3651 27.4599 29.0585 27.209C28.7519 26.9582 28.4979 26.6493 28.3109 26.3001C28.124 25.9509 28.0078 25.5682 27.969 25.174ZM32.243 37.22C31.6467 37.2855 31.0444 37.1726 30.5123 36.8955C29.9802 36.6185 29.5423 36.1898 29.254 35.6637C28.9657 35.1376 28.84 34.5378 28.8928 33.9402C28.9457 33.3427 29.1746 32.7742 29.5507 32.3068C29.9268 31.8395 30.4331 31.4942 31.0056 31.3148C31.578 31.1354 32.1908 31.1299 32.7664 31.299C33.342 31.4681 33.8544 31.8042 34.2389 32.2647C34.6233 32.7252 34.8624 33.2895 34.926 33.886C34.9723 34.2817 34.9393 34.6826 34.829 35.0654C34.7187 35.4482 34.5333 35.8052 34.2835 36.1155C34.0338 36.4259 33.7247 36.6834 33.3744 36.873C33.024 37.0626 32.6394 37.1806 32.243 37.22ZM38.137 24.1C38.0786 23.5079 38.1968 22.9117 38.4769 22.3867C38.7569 21.8617 39.1861 21.4314 39.7104 21.1501C40.2347 20.8688 40.8306 20.7491 41.4229 20.8061C42.0151 20.8631 42.5772 21.0942 43.0383 21.4703C43.4994 21.8463 43.8387 22.3506 44.0135 22.9193C44.1883 23.4881 44.1908 24.0958 44.0206 24.666C43.8503 25.2361 43.5151 25.743 43.057 26.1228C42.599 26.5026 42.0388 26.7382 41.447 26.8C40.6501 26.8807 39.8537 26.6416 39.233 26.1353C38.6123 25.629 38.218 24.8969 38.137 24.1ZM42.428 36.142C41.831 36.2101 41.2272 36.0992 40.6933 35.8235C40.1594 35.5478 39.7195 35.1197 39.4294 34.5936C39.1392 34.0674 39.012 33.4669 39.0637 32.8682C39.1155 32.2696 39.344 31.6998 39.7202 31.2313C40.0964 30.7627 40.6033 30.4165 41.1766 30.2366C41.7499 30.0567 42.3638 30.0512 42.9402 30.2208C43.5166 30.3904 44.0297 30.7274 44.4142 31.1891C44.7988 31.6508 45.0375 32.2164 45.1 32.814C45.187 33.6098 44.9546 34.4076 44.4538 35.0322C43.9529 35.6567 43.2247 36.057 42.429 36.145" fill="#33A437"/>
<path d="M2.059 71.4349H2.968C3.18313 71.4396 3.39466 71.3793 3.575 71.2619C3.73624 71.0781 3.85324 70.8599 3.917 70.6239L4.367 69.2429C4.42532 68.9384 4.55323 68.6516 4.74075 68.4047C4.92828 68.1579 5.17033 67.9577 5.448 67.8199C5.73363 67.7034 6.03952 67.6446 6.348 67.6469C6.74324 67.6425 7.13467 67.7244 7.495 67.8869L7.179 69.3869C7.01489 69.2909 6.82812 69.2405 6.638 69.2409C6.55681 69.2391 6.47631 69.2562 6.40289 69.291C6.32947 69.3257 6.26514 69.377 6.215 69.4409C6.06269 69.7002 5.95582 69.9836 5.899 70.2789L5.755 70.7569C5.65549 71.1012 5.49457 71.4248 5.28 71.7119C5.07324 71.942 4.80166 72.1041 4.501 72.1769V72.2159C5.00228 72.2942 5.45267 72.5664 5.755 72.9739C5.98985 73.2954 6.16839 73.6546 6.283 74.0359L7.31 77.1049H5.11L4.239 74.4889C4.14175 74.0738 3.95734 73.6842 3.698 73.3459C3.46702 73.1368 3.16551 73.0229 2.854 73.0269H2.059V77.1039H0V67.8039H2.059V71.4349Z" fill="white"/>
<path d="M13.743 71.1549C14.3724 71.9023 14.7175 72.8479 14.7175 73.8249C14.7175 74.802 14.3724 75.7476 13.743 76.4949C13.122 77.0307 12.3181 77.3062 11.499 77.2639C10.6804 77.3066 9.87705 77.0311 9.257 76.4949C8.62633 75.7482 8.28035 74.8024 8.28035 73.8249C8.28035 72.8475 8.62633 71.9017 9.257 71.1549C9.87668 70.6181 10.6802 70.3421 11.499 70.3849C12.3183 70.3426 13.1223 70.6185 13.743 71.1549ZM12.685 73.2799C12.7112 73.0662 12.6932 72.8493 12.6319 72.6429C12.5707 72.4364 12.4676 72.2448 12.329 72.0799C12.1008 71.8748 11.8048 71.7613 11.498 71.7613C11.1912 71.7613 10.8952 71.8748 10.667 72.0799C10.5286 72.2449 10.4257 72.4366 10.3644 72.643C10.3032 72.8494 10.285 73.0662 10.311 73.2799V74.369C10.285 74.5827 10.3032 74.7995 10.3644 75.0059C10.4257 75.2123 10.5286 75.404 10.667 75.5689C10.8952 75.7741 11.1912 75.8876 11.498 75.8876C11.8048 75.8876 12.1008 75.7741 12.329 75.5689C12.4676 75.4041 12.5707 75.2125 12.6319 75.006C12.6932 74.7996 12.7112 74.5827 12.685 74.369V73.2799Z" fill="white"/>
<path d="M19.7 73.4119L21.228 70.5439H23.036V77.0999H21.111V74.8999L21.202 73.2929L19.884 75.7489H19.276L17.957 73.2929L18.05 74.8999V77.0999H16.323V70.5439H18.182L19.7 73.4119Z" fill="white"/>
<path d="M30.946 77.0999H29.021V71.9999H26.989V77.0999H25.063V70.5439H30.946V77.0999Z" fill="white"/>
<path d="M37.063 76.456H37.011C36.8646 76.6252 36.6904 76.7683 36.496 76.879C36.0453 77.1498 35.5255 77.2836 35 77.264C34.3875 77.3057 33.7801 77.1285 33.286 76.764C33.0674 76.5841 32.8931 76.3563 32.7766 76.0983C32.66 75.8403 32.6044 75.5589 32.614 75.276C32.5993 74.9168 32.6956 74.5618 32.89 74.2594C33.0843 73.957 33.3672 73.7218 33.7 73.586C34.5075 73.3179 35.3555 73.1927 36.206 73.216H36.958V72.564C36.9773 72.3127 36.9024 72.0632 36.748 71.864C36.6244 71.7595 36.481 71.6809 36.3264 71.633C36.1718 71.585 36.0091 71.5687 35.848 71.585C35.5928 71.5666 35.3374 71.6166 35.108 71.73C35.0041 71.78 34.9174 71.8598 34.8589 71.9591C34.8003 72.0584 34.7725 72.1729 34.779 72.288C34.779 72.3733 34.7877 72.4584 34.805 72.542L33.065 72.5C32.9196 72.2195 32.8822 71.8954 32.96 71.5892C33.0378 71.283 33.2253 71.016 33.487 70.839C34.1932 70.4672 34.9927 70.3104 35.787 70.388C36.6588 70.3201 37.5268 70.56 38.24 71.066C38.4941 71.3089 38.6856 71.6096 38.7982 71.9426C38.9109 72.2755 38.9414 72.6307 38.887 72.978V77.109H37.063V76.456ZM36.957 74.21H36.338C35.678 74.21 34.65 74.263 34.65 75.167C34.65 75.605 34.914 76.03 35.65 76.03C35.9009 76.0326 36.149 75.9777 36.3754 75.8696C36.6018 75.7614 36.8004 75.6028 36.956 75.406L36.957 74.21Z" fill="white"/>
<path d="M46.794 77.0999H44.867V74.4219H42.677V77.0999H40.752V70.5439H42.677V72.9609H44.867V70.5439H46.794V77.0999Z" fill="white"/>
<path d="M55.2 77.0999H53.279V74.2759L53.347 73.0529H53.293L50.747 77.0999H48.822V70.5439H50.747V73.3729L50.68 74.5939H50.733L53.279 70.5439H55.2V77.0999Z" fill="white"/>
<path d="M62.943 77.1051H61.017V74.6491H60.175C60.0055 74.6357 59.8357 74.6704 59.685 74.7491C59.509 74.8718 59.3791 75.05 59.316 75.2551L58.696 77.1001H56.678L57.325 75.4001C57.4124 75.0973 57.5555 74.8134 57.747 74.5631C57.944 74.3087 58.2163 74.1229 58.525 74.0321V73.9811C58.1693 73.9135 57.8378 73.7531 57.564 73.5161C57.4096 73.3684 57.2866 73.1911 57.2026 72.9946C57.1186 72.7982 57.0752 72.5868 57.075 72.3731C57.0799 72.1112 57.1412 71.8534 57.2548 71.6173C57.3683 71.3812 57.5314 71.1724 57.733 71.0051C58.2887 70.6671 58.9336 70.505 59.583 70.5401H62.945L62.943 77.1051ZM59.91 71.9251C59.8096 71.9097 59.7071 71.9164 59.6095 71.9446C59.5119 71.9728 59.4216 72.0219 59.345 72.0885C59.2683 72.1551 59.207 72.2376 59.1654 72.3303C59.1238 72.4229 59.1028 72.5235 59.104 72.6251C59.104 72.8891 59.276 73.2611 59.989 73.2611H61.016V71.9251H59.91Z" fill="white"/>
<path d="M67.529 70.2V68.54L69.3 67.05V70.2H67.529ZM70.221 70.2V68.54L71.989 67.053V70.2H70.221Z" fill="white"/>
<path d="M80.255 68.8689C81.0269 69.8986 81.4012 71.1723 81.309 72.4559C81.4012 73.7395 81.0269 75.0133 80.255 76.0429C79.8744 76.4296 79.4207 76.7368 78.9202 76.9464C78.4197 77.156 77.8826 77.264 77.34 77.264C76.7974 77.264 76.2602 77.156 75.7598 76.9464C75.2593 76.7368 74.8056 76.4296 74.425 76.0429C73.6526 75.0135 73.2783 73.7396 73.371 72.4559C73.2783 71.1723 73.6526 69.8984 74.425 68.8689C74.8052 68.4816 75.2589 68.174 75.7594 67.9639C76.2599 67.7539 76.7972 67.6458 77.34 67.6458C77.8828 67.6458 78.4201 67.7539 78.9206 67.9639C79.4211 68.174 79.8747 68.4816 80.255 68.8689ZM79.146 71.9909C79.2146 71.2051 79.0295 70.4179 78.618 69.7449C78.453 69.5749 78.2535 69.4423 78.0328 69.356C77.8121 69.2698 77.5755 69.2319 77.339 69.2449C77.1024 69.2332 76.8661 69.2717 76.6455 69.3579C76.4248 69.4441 76.225 69.576 76.059 69.7449C75.6274 70.4095 75.4408 71.2037 75.531 71.9909V72.9069C75.4393 73.6984 75.626 74.4971 76.059 75.1659C76.4062 75.4901 76.8635 75.6703 77.3385 75.6703C77.8135 75.6703 78.2708 75.4901 78.618 75.1659C79.0515 74.4973 79.2382 73.6984 79.146 72.9069V71.9909Z" fill="white"/>
<path d="M88.56 75.7249H89.393V78.7519H87.612V77.1049H84.077V78.7519H82.3V75.7249H82.9C83.2675 75.2287 83.5321 74.6639 83.678 74.0639C83.8534 73.2301 83.9325 72.3788 83.914 71.5269L83.928 70.5449H88.56V75.7249ZM85.58 71.9249L85.566 72.5489C85.5442 73.1846 85.4605 73.8165 85.316 74.4359C85.1964 74.8927 85.0054 75.3278 84.75 75.7249H86.636V71.9249H85.58Z" fill="white"/>
<path d="M92.276 74.489C92.2842 74.855 92.4361 75.2031 92.699 75.458C93.029 75.7276 93.4474 75.8652 93.873 75.844C94.2182 75.8472 94.5615 75.7932 94.889 75.684C95.2064 75.5805 95.5113 75.442 95.798 75.271L96.444 76.471C96.0915 76.6936 95.7151 76.8761 95.322 77.015C94.8209 77.1834 94.2956 77.2686 93.767 77.267C93.2926 77.2936 92.8176 77.2265 92.3692 77.0693C91.9209 76.9121 91.5079 76.668 91.154 76.351C90.8312 76.0001 90.5839 75.5867 90.4276 75.1364C90.2712 74.686 90.2091 74.2083 90.245 73.733C90.1954 72.8574 90.4879 71.9968 91.061 71.333C91.3493 71.0182 91.7032 70.7705 92.0976 70.6073C92.4921 70.4442 92.9176 70.3697 93.344 70.389C93.7545 70.3744 94.1636 70.4434 94.5466 70.5917C94.9296 70.7401 95.2784 70.9647 95.572 71.252C96.1273 71.9105 96.4065 72.7583 96.351 73.618V74.296H92.276V74.489ZM94.376 73.094V72.867C94.3918 72.5689 94.3183 72.273 94.165 72.017C94.0762 71.8834 93.9542 71.7752 93.8109 71.703C93.6677 71.6308 93.5082 71.597 93.348 71.605C93.1998 71.603 93.053 71.6342 92.9183 71.6963C92.7837 71.7584 92.6647 71.8499 92.57 71.964C92.368 72.2192 92.265 72.5388 92.28 72.864V73.091L94.376 73.094Z" fill="white"/>
<path d="M102.917 72.9999H103.101C103.297 73.013 103.491 72.9614 103.655 72.8529C103.773 72.7363 103.856 72.5886 103.893 72.4269L104.115 71.6709C104.165 71.4342 104.265 71.2109 104.409 71.0161C104.552 70.8214 104.736 70.6597 104.947 70.5419C105.215 70.4195 105.51 70.3649 105.804 70.3829C106.149 70.3917 106.489 70.4682 106.804 70.6079L106.527 71.9079C106.391 71.8137 106.23 71.7628 106.065 71.7619C105.979 71.7554 105.893 71.7763 105.82 71.8215C105.746 71.8668 105.689 71.9341 105.656 72.0139C105.581 72.182 105.519 72.3559 105.472 72.5339L105.379 72.8399C105.322 73.0387 105.211 73.2176 105.057 73.3559C104.903 73.4942 104.714 73.5864 104.51 73.6219V73.6629C104.798 73.7263 105.069 73.8527 105.302 74.0329C105.562 74.2548 105.762 74.539 105.882 74.8589L106.782 77.1019H104.752L104.091 75.2289C104.031 74.9675 103.899 74.7282 103.709 74.5389C103.549 74.4221 103.353 74.3657 103.155 74.3799H102.918V77.0999H100.991V74.3819H100.754C100.556 74.3678 100.359 74.4241 100.199 74.5409C100.011 74.7313 99.8783 74.9701 99.817 75.2309L99.158 77.0999H97.126L98.026 74.8569C98.1295 74.5542 98.3108 74.2841 98.5516 74.0735C98.7923 73.8629 99.0842 73.7192 99.398 73.6569V73.6159C99.1939 73.5807 99.0039 73.4887 98.8498 73.3504C98.6958 73.212 98.5839 73.033 98.527 72.8339L98.435 72.5279C98.3878 72.3499 98.3263 72.176 98.251 72.0079C98.218 71.9282 98.1607 71.861 98.0873 71.8157C98.0138 71.7705 97.928 71.7495 97.842 71.7559C97.6765 71.7567 97.5151 71.8076 97.379 71.9019L97.102 70.6019C97.4175 70.4626 97.7572 70.3862 98.102 70.3769C98.3964 70.3589 98.6907 70.4135 98.959 70.5359C99.1703 70.6536 99.3538 70.8153 99.4972 71.0101C99.6405 71.2049 99.7404 71.4282 99.79 71.6649L100.015 72.4209C100.051 72.583 100.133 72.7311 100.252 72.8469C100.415 72.9554 100.61 73.007 100.805 72.9939H100.989V70.5429H102.916L102.917 72.9999Z" fill="white"/>
<path d="M113.4 75.7249H114.233V78.7519H112.451V77.1049H108.916V78.7519H107.135V75.7249H107.742C108.11 75.2287 108.374 74.6639 108.52 74.0639C108.696 73.2301 108.775 72.3788 108.756 71.5269L108.77 70.5449H113.4V75.7249ZM110.42 71.9249L110.407 72.5489C110.384 73.1845 110.3 73.8165 110.156 74.4359C110.036 74.8927 109.845 75.3278 109.59 75.7249H111.476V71.9249H110.42Z" fill="white"/>
<path d="M119.53 76.456H119.478C119.331 76.6255 119.157 76.7686 118.962 76.879C118.513 77.1492 117.996 77.2833 117.472 77.265C116.86 77.3068 116.253 77.1296 115.759 76.765C115.54 76.5855 115.365 76.3578 115.248 76.0997C115.131 75.8417 115.075 75.5602 115.085 75.277C115.071 74.919 115.167 74.5652 115.36 74.2636C115.554 73.962 115.835 73.7272 116.167 73.5911C116.974 73.323 117.823 73.1977 118.673 73.221H119.426V72.569C119.445 72.3175 119.369 72.0679 119.214 71.8691C119.09 71.7645 118.947 71.6859 118.792 71.6379C118.638 71.59 118.475 71.5737 118.314 71.59C118.059 71.5715 117.804 71.6216 117.575 71.735C117.471 71.7848 117.384 71.8644 117.325 71.9638C117.266 72.0631 117.238 72.1777 117.244 72.293C117.244 72.3784 117.253 72.4636 117.271 72.547L115.53 72.506C115.384 72.2257 115.347 71.9014 115.424 71.5951C115.502 71.2888 115.69 71.0218 115.952 70.845C116.658 70.4734 117.458 70.3166 118.252 70.394C119.123 70.3262 119.991 70.5661 120.704 71.072C120.958 71.3149 121.15 71.6157 121.262 71.9486C121.375 72.2815 121.405 72.6368 121.351 72.984V77.115H119.53V76.456ZM119.425 74.21H118.805C118.145 74.21 117.117 74.263 117.117 75.167C117.117 75.605 117.379 76.03 118.117 76.03C118.368 76.0326 118.616 75.9777 118.843 75.8695C119.069 75.7614 119.268 75.6028 119.424 75.406L119.425 74.21Z" fill="white"/>
<path d="M131.739 75.7249H132.569V78.7519H130.788V77.1049H127.253V78.7519H125.473V75.7249H126.079C126.447 75.2289 126.711 74.6641 126.857 74.0639C127.033 73.2302 127.113 72.3789 127.094 71.5269L127.108 70.5449H131.738L131.739 75.7249ZM128.757 71.9249L128.744 72.5489C128.721 73.1845 128.637 73.8164 128.494 74.4359C128.375 74.8931 128.183 75.3283 127.926 75.7249H129.814V71.9249H128.757Z" fill="white"/>
<path d="M139.094 77.1049H137.169V71.9249H135.969L135.929 73.1879C135.922 73.7701 135.878 74.3513 135.798 74.9279C135.771 75.3095 135.662 75.6806 135.477 76.0156C135.292 76.3506 135.037 76.6414 134.729 76.8679C134.178 77.1979 133.534 77.3384 132.896 77.2679L132.696 75.7679C133.044 75.8264 133.402 75.7503 133.696 75.5549C133.874 75.3755 134.013 75.162 134.107 74.9273C134.2 74.6926 134.244 74.4414 134.238 74.1889C134.29 73.5239 134.331 72.4079 134.344 71.5449L134.357 70.5449H139.091L139.094 77.1049Z" fill="white"/>
<path d="M146.835 77.1049H144.908V74.6489H144.065C143.896 74.6354 143.726 74.6701 143.576 74.7489C143.399 74.8712 143.269 75.0495 143.206 75.2549L142.586 77.0999H140.568L141.214 75.3999C141.301 75.0969 141.445 74.813 141.637 74.5629C141.834 74.3083 142.106 74.1224 142.415 74.0319V73.9809C142.059 73.9133 141.727 73.7529 141.453 73.5159C141.299 73.368 141.176 73.1906 141.092 72.9942C141.009 72.7978 140.965 72.5864 140.965 72.3729C140.97 72.1108 141.031 71.8528 141.145 71.6167C141.258 71.3805 141.422 71.1718 141.624 71.0049C142.179 70.6668 142.823 70.5047 143.472 70.5399H146.835V77.1049ZM143.801 71.9249C143.701 71.9097 143.598 71.9164 143.501 71.9447C143.403 71.973 143.313 72.0221 143.237 72.0887C143.16 72.1553 143.099 72.2378 143.057 72.3303C143.016 72.4229 142.995 72.5234 142.996 72.6249C142.996 72.8889 143.167 73.2609 143.88 73.2609H144.908V71.9249H143.801Z" fill="white"/>
<path d="M151.842 80V70.544H153.557V71.115C153.766 70.8722 154.028 70.6803 154.323 70.5538C154.617 70.4273 154.937 70.3696 155.257 70.385C155.635 70.3721 156.01 70.4441 156.357 70.5957C156.703 70.7473 157.01 70.9747 157.257 71.261C157.784 72.0669 158.046 73.0174 158.005 73.9794C157.965 74.9415 157.625 75.8668 157.033 76.626C156.521 77.0649 155.861 77.2929 155.187 77.264C154.687 77.2887 154.19 77.1637 153.761 76.905V80H151.842ZM153.767 75.539C154.075 75.7608 154.444 75.8814 154.823 75.884C154.986 75.8946 155.149 75.8677 155.299 75.8055C155.45 75.7433 155.584 75.6473 155.692 75.525C155.921 75.1755 156.023 74.7586 155.983 74.343V73.243C156.017 72.8518 155.924 72.46 155.718 72.126C155.621 72.0088 155.499 71.9155 155.36 71.8534C155.221 71.7913 155.07 71.762 154.918 71.768C154.48 71.7875 154.067 71.9781 153.768 72.299L153.767 75.539Z" fill="white"/>
<path d="M163.71 76.4561H163.657C163.511 76.626 163.336 76.7692 163.141 76.8791C162.693 77.1492 162.176 77.2833 161.653 77.2651C161.04 77.307 160.432 77.1298 159.938 76.7651C159.719 76.5852 159.545 76.3575 159.428 76.0995C159.311 75.8415 159.255 75.5602 159.264 75.2771C159.25 74.9189 159.346 74.5651 159.54 74.2635C159.734 73.9619 160.015 73.7272 160.347 73.5911C161.155 73.3229 162.003 73.1977 162.854 73.2211H163.606V72.5691C163.625 72.3176 163.55 72.068 163.395 71.8691C163.271 71.7647 163.128 71.6862 162.973 71.6383C162.819 71.5904 162.656 71.574 162.495 71.5901C162.24 71.5717 161.984 71.6218 161.755 71.7351C161.651 71.7851 161.564 71.8649 161.506 71.9642C161.447 72.0635 161.42 72.178 161.426 72.2931C161.425 72.3785 161.434 72.4638 161.453 72.5471L159.712 72.5061C159.566 72.2258 159.528 71.9014 159.606 71.595C159.684 71.2885 159.872 71.0215 160.134 70.8451C160.84 70.4733 161.64 70.3165 162.434 70.3941C163.305 70.3262 164.173 70.5661 164.885 71.0721C165.139 71.3148 165.331 71.6155 165.444 71.9484C165.557 72.2814 165.587 72.6368 165.533 72.9841V77.1151H163.71V76.4561ZM163.6 74.2101H162.98C162.32 74.2101 161.292 74.2631 161.292 75.1671C161.292 75.6051 161.555 76.0301 162.292 76.0301C162.543 76.0325 162.791 75.9775 163.017 75.8694C163.244 75.7612 163.442 75.6027 163.598 75.4061L163.6 74.2101Z" fill="white"/>
<path d="M168.373 71.7789C168.584 71.4119 168.894 71.1115 169.267 70.9121C169.641 70.7126 170.063 70.6221 170.485 70.6509C171.243 70.6206 171.985 70.8822 172.556 71.3819C172.879 71.6983 173.131 72.08 173.294 72.5015C173.457 72.923 173.529 73.3745 173.504 73.8259C173.529 74.2871 173.463 74.7489 173.309 75.1842C173.154 75.6196 172.915 76.0199 172.604 76.3619C171.977 76.9519 171.144 77.2747 170.283 77.2619C169.85 77.2698 169.419 77.1916 169.016 77.032C168.613 76.8724 168.245 76.6344 167.935 76.3319C167.232 75.366 166.912 74.1741 167.035 72.9859C167.021 72.1327 167.105 71.2806 167.287 70.4469C167.423 69.8487 167.742 69.3078 168.2 68.8999C168.685 68.5271 169.258 68.2859 169.863 68.1999L170.627 68.0929C171.34 68.0009 171.511 67.8549 171.527 67.5759L171.54 67.3899H173.176V67.6539C173.208 68.0548 173.11 68.4554 172.898 68.7969C172.392 69.2872 171.716 69.5634 171.012 69.5679L170.236 69.6749C169.927 69.685 169.625 69.7617 169.348 69.8998C169.072 70.0379 168.829 70.2341 168.636 70.4749C168.446 70.8211 168.343 71.2081 168.336 71.6029V71.7899L168.373 71.7789ZM171.473 73.4789C171.529 73.1 171.434 72.7143 171.21 72.4039C171.09 72.2819 170.946 72.1859 170.788 72.1217C170.629 72.0576 170.459 72.0267 170.288 72.0309C169.968 72.041 169.661 72.1586 169.417 72.3649C169.285 72.5337 169.188 72.728 169.134 72.9356C169.079 73.1432 169.068 73.3598 169.101 73.5719V74.3829C169.078 74.5977 169.097 74.815 169.158 75.0223C169.219 75.2297 169.32 75.4229 169.456 75.5909C169.691 75.7807 169.985 75.8842 170.287 75.8842C170.589 75.8842 170.883 75.7807 171.118 75.5909C171.254 75.4229 171.355 75.2297 171.416 75.0223C171.477 74.815 171.496 74.5977 171.473 74.3829V73.4789Z" fill="white"/>
<path d="M180.151 71.1549C180.781 71.902 181.126 72.8477 181.126 73.8249C181.126 74.8021 180.781 75.7478 180.151 76.4949C179.51 76.9935 178.721 77.2642 177.908 77.2642C177.096 77.2642 176.307 76.9935 175.666 76.4949C175.036 75.7478 174.691 74.8021 174.691 73.8249C174.691 72.8477 175.036 71.902 175.666 71.1549C176.307 70.6556 177.096 70.3845 177.908 70.3845C178.721 70.3845 179.51 70.6556 180.151 71.1549ZM179.1 73.2799C179.126 73.0662 179.108 72.8494 179.047 72.6429C178.985 72.4365 178.882 72.2449 178.744 72.0799C178.516 71.8749 178.219 71.7615 177.913 71.7615C177.606 71.7615 177.309 71.8749 177.081 72.0799C176.942 72.2447 176.839 72.4363 176.778 72.6428C176.716 72.8492 176.698 73.0661 176.724 73.2799V74.3689C176.698 74.5827 176.716 74.7996 176.778 75.0061C176.839 75.2125 176.942 75.4041 177.081 75.5689C177.309 75.7739 177.606 75.8873 177.913 75.8873C178.219 75.8873 178.516 75.7739 178.744 75.5689C178.882 75.4039 178.985 75.2123 179.047 75.0059C179.108 74.7994 179.126 74.5826 179.1 74.3689V73.2799Z" fill="white"/>
<path d="M187.7 70.5439V72.0049H185.74V77.1049H183.813V72.0049H181.848V70.5439H187.7Z" fill="white"/>
<path d="M192.147 72.7619C194.31 72.7619 194.879 73.8619 194.879 74.9009C194.879 75.6009 194.601 77.1009 191.979 77.1009H188.854V70.5439H190.78V72.7619H192.147ZM190.775 75.7249H191.9C192.032 75.741 192.166 75.7291 192.294 75.69C192.421 75.6509 192.539 75.5855 192.639 75.4979C192.71 75.4301 192.766 75.3477 192.802 75.2565C192.839 75.1652 192.855 75.0671 192.85 74.9689C192.857 74.8431 192.835 74.7173 192.785 74.6017C192.734 74.486 192.658 74.3837 192.561 74.3029C192.35 74.1784 192.105 74.1225 191.861 74.1429H190.779L190.775 75.7249ZM197.739 77.1059H195.813V70.5439H197.739V77.1059Z" fill="white"/>
<path d="M201.308 67.8059V69.4659L199.541 70.9549V67.8059H201.308ZM204 67.8059V69.4659L202.231 70.9549V67.8059H204Z" fill="white"/>
</g>
</svg>
